<svg xmlns="http://www.w3.org/2000/svg" width="103" height="50" viewBox="0 0 103 50">
  <g fill="none" fill-rule="evenodd">
    <path fill="#000000" d="M93.3001442,25.6967303 L102.999812,25.6967303 L102.999812,29.350365 L88.2599106,29.350365 L88.2599106,9.41548345 L102.79494,9.41548345 L102.79494,13.1272373 L93.3001442,13.1272373 L93.3001442,17.1610839 L102.355498,17.1610839 L102.355498,20.9028347 L93.3001442,20.9028347 L93.3001442,25.6967303 Z M75.27755,9.75924908 L75.27755,25.6385361 L85.4753018,25.6385361 L85.4753018,29.3506649 L75.9248712,29.3506649 L70.2369405,28.6311119 L70.2369405,18.5674933 L64.8662799,27.9516798 L61.960477,27.5838416 L61.9593493,27.5827167 L70.2369405,11.3547145 L70.2369405,11.3464654 L71.2225828,9.41540846 L71.2259661,9.41540846 L75.8256303,0.397560244 L80.8440609,0.0327217278 L75.27755,9.75924908 Z M72.1581912,1.58131687 L57.3765635,29.6960054 L83.7069723,33.8922108 L78.4193883,39.6073893 L52.803965,31.8092941 L66.8138445,4.31516848 L28.9996876,7.12026297 L30.1067496,4.05381962 L72.4389978,0.825767423 L72.6119175,0.718528147 L72.1581912,1.58131687 Z M48.847938,33.3080567 L74.8802482,43.5940281 L69.5486825,49.974765 L43.1686533,35.5469578 L45.9195803,30.9525422 L39.3542701,11.8886986 L35.1500657,12.3382787 L42.7273321,29.3503275 L37.3645657,29.3503275 L35.723708,25.4042221 L26.7860146,25.4042221 L25.2913869,29.3503275 L20.0165839,29.3503275 L26.5202445,13.2614364 L28.0750182,9.41544596 L63.3840949,6.76671083 L48.847938,33.3080567 Z M48.7261423,10.8856739 L46.2894781,11.1466478 L49.2287372,25.4274698 L50.7414088,22.9009724 L48.7261423,10.8856739 Z M46.7973358,29.4871888 L48.1961058,27.1511724 L44.1336204,11.3772498 L41.4642664,11.6625962 L46.7973358,29.4871888 Z M13.5679193,10.204592 C15.1501347,10.7602865 19.9561748,13.1862939 19.9561748,19.3540521 C19.9561748,21.3417283 19.4580909,25.4921883 15.0918682,27.8597015 C13.1867442,28.8829742 11.2526748,29.3505524 7.76571131,29.3505524 L0.000112773723,29.3505524 L0.000112773723,9.41529597 L8.1468865,9.41529597 C9.43589015,9.41529597 11.281996,9.41529597 13.5679193,10.204592 Z M11.457923,24.9661159 C13.4799558,24.0890786 14.7986566,22.1598965 14.7986566,19.3244301 C14.7986566,17.1612714 14.0073609,14.7941331 11.4286018,13.7416133 C10.1392223,13.2155409 8.90848504,13.2155409 7.56046314,13.2155409 L5.04034635,13.2155409 L5.04034635,25.5506824 L7.0623792,25.5506824 C9.84601058,25.5506824 10.6376821,25.3167058 11.457923,24.9661159 Z"/>
    <polygon fill="#ED1C24" points="52.006 20.79 58.567 9.833 50.921 10.651"/>
    <polygon fill="#56C5D0" points="34.258 21.926 31.035 14.209 28.105 21.926"/>
    <polygon fill="#FFDD16" points="70.237 18.567 64.867 27.952 64.012 27.844 68.602 28.424 70.237 28.631"/>
  </g>
</svg>